<svg id="Layer_1" data-name="Layer 1" xmlns="http://www.w3.org/2000/svg" viewBox="0 0 478 408"><title>AD</title><path d="M457.92,252.28c0-78.68-49.74-126.54-131.23-126.39l-71.2.15,48.36,103.63V176.1h22.68c49.9,0,80.24,28.78,80.24,76,0,39.66-21.62,66.05-58.23,73.29l22,47.23C425.64,358.22,457.92,315.22,457.92,252.28Z"/><polygon points="141.3 262.52 183.52 169.68 183.52 262.52 141.3 262.52"/><polygon points="183.52 9.02 183.52 169.49 225.74 262.34 183.52 262.34 183.52 262.52 63.06 262.52 11.73 372.64 88.8 372.64 111.47 323.1 253.49 323.1 275.94 372.64 353.22 372.64 183.52 9.02"/><rect x="10" y="380.43" width="449.37" height="15.57"/></svg>